<svg width="20" height="20" viewBox="0 0 20 20" fill="none" xmlns="http://www.w3.org/2000/svg">
<g clip-path="url(#clip0_65_211)">
<path d="M11.6666 6.66667H13.3333V8.33333C13.3333 8.79167 13.7083 9.16667 14.1666 9.16667C14.6249 9.16667 14.9999 8.79167 14.9999 8.33333V6.66667H16.6666C17.1249 6.66667 17.4999 6.29167 17.4999 5.83333C17.4999 5.375 17.1249 5 16.6666 5H14.9999V3.33333C14.9999 2.875 14.6249 2.5 14.1666 2.5C13.7083 2.5 13.3333 2.875 13.3333 3.33333V5H11.6666C11.2083 5 10.8333 5.375 10.8333 5.83333C10.8333 6.29167 11.2083 6.66667 11.6666 6.66667ZM16.0083 12.725L13.8916 12.4833C13.3833 12.425 12.8833 12.6 12.5249 12.9583L10.9916 14.4917C8.63328 13.2917 6.69994 11.3667 5.49994 9L7.04161 7.45833C7.39994 7.1 7.57495 6.59167 7.51661 6.09167L7.27494 3.99167C7.18328 3.15 6.46661 2.50833 5.62494 2.50833H4.18328C3.24161 2.50833 2.45828 3.29167 2.51661 4.23333C2.95828 11.35 8.64994 17.0333 15.7583 17.475C16.6999 17.5333 17.4833 16.75 17.4833 15.8083V14.3667C17.4916 13.5333 16.8499 12.8167 16.0083 12.725V12.725Z" fill="#3D4954"/>
</g>
<defs>
<clipPath id="clip0_65_211">
<rect width="20" height="20" fill="white"/>
</clipPath>
</defs>
</svg>
